<svg width="100" height="100" viewBox="0 0 100 100" fill="none" xmlns="http://www.w3.org/2000/svg">
<g clip-path="url(#clip0)">
<path d="M98.1212 34.6315L51.2427 14.3175C50.4499 13.9739 49.5502 13.9739 48.7574 14.3175L1.87888 34.6315C-0.625999 35.7169 -0.626585 39.281 1.87888 40.3665L18.7477 47.6762V67.1886C18.7477 77.7034 32.4753 85.94 50 85.94C67.5248 85.94 81.2524 77.7034 81.2524 67.1886V47.6762L84.3776 46.322V79.6895C84.3776 81.4154 85.7769 82.8148 87.5028 82.8148C89.2287 82.8148 90.6281 81.4154 90.6281 79.6895V43.6136L98.1212 40.3667C100.626 39.2812 100.626 35.7171 98.1212 34.6315ZM50 20.591L89.0184 37.4991L85.9238 38.84L50.3876 34.3979C48.6747 34.1852 47.1129 35.3987 46.8988 37.1114C46.6847 38.824 47.8997 40.386 49.6123 40.6001L74.6419 43.7288L50 54.407C27.956 44.8545 32.6511 46.889 10.9817 37.4989L50 20.591ZM75.0019 67.1888C75.0019 70.1333 72.5851 73.165 68.3711 75.506C58.335 81.0816 41.6943 81.098 31.6289 75.506C27.415 73.165 24.9982 70.1333 24.9982 67.1888V50.385L48.7574 60.6807C49.5488 61.0237 50.4483 61.0248 51.2427 60.6807L75.0019 50.385V67.1888Z" fill="black"/>
</g>
<defs>
<clipPath id="clip0">
<rect width="100" height="100" fill="white"/>
</clipPath>
</defs>
</svg>
